User Type,Username,Date,Text
,HKCannibal,2013-06-17T03:22Z,Thanks Man!
,HKCannibal,2013-06-17T22:17Z,"Complete Mediainfo:


General:

Complete Name                            : Deceiver of the Gods (2013)1. Deceiver of the Gods.mp3
Format                                   : MPEG Audio
File size                                : 9.29 MiB
Duration                                 : 4mn 19s
Overall bit rate mode                    : Variable
Overall bit rate                         : 300 Kbps
Album                                    : Deceiver of the Gods
Track name                               : Deceiver of the Gods
Track name/Position                      : 1
Performer                                : Amon Amarth
Recorded date                            : 2013
Writing library                          : LAME3.98r

Audio:

Format                                   : MPEG Audio
Format version                           : Version 1
Format profile                           : Layer 3
Mode                                     : Joint stereo
Duration                                 : 4mn 19s
Bit rate mode                            : Variable
Bit rate                                 : 300 Kbps
Minimum bit rate                         : 32.0 Kbps
Channel(s)                               : 2 channels
Sampling rate                            : 44.1 KHz
Compression mode                         : Lossy
Stream size                              : 9.28 MiB (100%)
Writing library                          : LAME3.98r
Encoding settings                        : -m j -V 0 -q 3 -lowpass 19.5 --vbr-old -b 32"
,HKCannibal,2013-06-17T22:19Z,"And the last song of the album:

General:

Complete name                            : Amon Amarth - Deceiver of the Gods (2013)10. Warriors Of The North.mp3
Format                                   : MPEG Audio
File size                                : 17.5 MiB
Duration                                 : 8mn 12s
Overall bit rate mode                    : Variable
Overall bit rate                         : 298 Kbps
Album                                    : Deceiver of the Gods
Track name                               : Warriors Of The North
Track name/Position                      : 10
Performer                                : Amon Amarth
Recorded date                            : 2013
Writing library                          : LAME3.98r

Audio:

Format                                   : MPEG Audio
Format version                           : Version 1
Format profile                           : Layer 3
Mode                                     : Joint stereo
Duration                                 : 8mn 12s
Bit rate mode                            : Variable
Bit rate                                 : 298 Kbps
Minimum bit rate                         : 32.0 Kbps
Channel(s)                               : 2 channels
Sampling rate                            : 44.1 KHz
Compression mode                         : Lossy
Stream size                              : 17.5 MiB (100%)
Writing library                          : LAME3.98r
Encoding settings                        : -m j -V 0 -q 3 -lowpass 19.5 --vbr-old -b 32"
,holy.shit.man,2013-06-17T23:54Z,"Thanks for the info, HKCannibal!
:D"
